<svg width="1243" height="1018" viewBox="0 0 1243 1018" fill="none" xmlns="http://www.w3.org/2000/svg">
<path d="M619.93 177.16H639.1C682.678 177.16 724.471 194.471 755.285 225.285C786.099 256.099 803.41 297.892 803.41 341.47V665.65H455.62V341.47C455.62 297.892 472.931 256.099 503.745 225.285C534.559 194.471 576.352 177.16 619.93 177.16Z" fill="#FFB7D5"/>
<path d="M692.75 472.63V670.73H538.25V472.63H692.75ZM696.75 468.63H534.25V674.73H696.75V468.63Z" fill="#CA7358"/>
<path d="M696.75 468.63H534.25V511.24H696.75V468.63Z" fill="#CA7358"/>
<path d="M533.47 365.62V671.72H440.4V365.62H533.47ZM537.47 361.62H436.4V675.72H537.47V361.62Z" fill="#CA7358"/>
<path d="M820.32 303.69V670.69H697.53V303.69H820.32ZM824.32 299.69H693.53V674.69H824.32V299.69Z" fill="#CA7358"/>
<path d="M746.32 349.73H748.23C752.574 349.73 756.741 351.456 759.812 354.528C762.884 357.599 764.61 361.766 764.61 366.11V404.22H729.94V366.11C729.94 361.766 731.666 357.599 734.738 354.528C737.809 351.456 741.976 349.73 746.32 349.73Z" fill="#CA7358"/>
<path d="M725.98 379.45H768.58" stroke="#FFB7D5" stroke-width="4" stroke-linecap="round" stroke-linejoin="round"/>
<path d="M746.32 447.49H748.23C752.574 447.49 756.741 449.216 759.812 452.288C762.884 455.359 764.61 459.526 764.61 463.87V502H729.94V463.88C729.94 459.536 731.666 455.369 734.738 452.298C737.809 449.226 741.976 447.5 746.32 447.5V447.49Z" fill="#F5EBDD"/>
<path d="M725.98 477.22H768.58" stroke="#FFB7D5" stroke-width="4" stroke-linecap="round" stroke-linejoin="round"/>
<path d="M746.32 545.26H748.23C752.574 545.26 756.741 546.986 759.812 550.058C762.884 553.129 764.61 557.296 764.61 561.64V599.75H729.94V561.64C729.94 557.296 731.666 553.129 734.738 550.058C737.809 546.986 741.976 545.26 746.32 545.26Z" fill="#F5EBDD"/>
<path d="M725.98 574.98H768.58" stroke="#FFB7D5" stroke-width="4" stroke-linecap="round" stroke-linejoin="round"/>
<path d="M746.32 643H748.23C752.574 643 756.741 644.726 759.812 647.798C762.884 650.869 764.61 655.036 764.61 659.38V694.38H729.94V659.38C729.94 655.036 731.666 650.869 734.738 647.798C737.809 644.726 741.976 643 746.32 643Z" fill="#30242A"/>
<path d="M466.32 430.73H468.23C472.574 430.73 476.741 432.456 479.812 435.528C482.884 438.599 484.61 442.766 484.61 447.11V485.22H449.94V447.11C449.94 442.766 451.666 438.599 454.738 435.528C457.809 432.456 461.976 430.73 466.32 430.73Z" fill="#F5EBDD"/>
<path d="M445.98 460.45H488.58" stroke="#FFB7D5" stroke-width="4" stroke-linecap="round" stroke-linejoin="round"/>
<path d="M466.32 528.49H468.23C472.574 528.49 476.741 530.216 479.812 533.288C482.884 536.359 484.61 540.526 484.61 544.87V583H449.94V544.88C449.939 542.728 450.361 540.597 451.184 538.609C452.007 536.62 453.213 534.813 454.734 533.291C456.255 531.769 458.061 530.562 460.049 529.738C462.037 528.914 464.168 528.49 466.32 528.49Z" fill="#F5EBDD"/>
<path d="M445.98 558.22H488.58" stroke="#FFB7D5" stroke-width="4" stroke-linecap="round" stroke-linejoin="round"/>
<path d="M466.32 626.26H468.23C472.574 626.26 476.741 627.986 479.812 631.058C482.884 634.129 484.61 638.296 484.61 642.64V680.75H449.94V642.64C449.94 638.296 451.666 634.129 454.738 631.058C457.809 627.986 461.976 626.26 466.32 626.26Z" fill="#CA7358"/>
<path d="M445.98 655.98H488.58" stroke="#FFB7D5" stroke-width="4" stroke-linecap="round" stroke-linejoin="round"/>
<path d="M824.32 299.69H693.53V316.04H824.32V299.69Z" fill="#CA7358"/>
<path d="M537.47 353.69H436.4V370.04H537.47V353.69Z" fill="#CA7358"/>
<path d="M598.16 549.88H563.48V594.47H598.16V549.88Z" fill="#F5EBDD"/>
<path d="M559.51 569.7H602.12" stroke="#FFB7D5" stroke-width="4" stroke-linecap="round" stroke-linejoin="round"/>
<path d="M580.82 596.45V569.7" stroke="#FFB7D5" stroke-width="4" stroke-linecap="round" stroke-linejoin="round"/>
<path d="M598.16 630.41H563.48V675H598.16V630.41Z" fill="#CA7358"/>
<path d="M559.51 650.22H602.12" stroke="#FFB7D5" stroke-width="4" stroke-linecap="round" stroke-linejoin="round"/>
<path d="M580.82 676.98V650.22" stroke="#FFB7D5" stroke-width="4" stroke-linecap="round" stroke-linejoin="round"/>
<path d="M663.55 549.88H628.87V594.47H663.55V549.88Z" fill="#30242A"/>
<path d="M624.91 569.7H667.52" stroke="#FFB7D5" stroke-width="4" stroke-linecap="round" stroke-linejoin="round"/>
<path d="M646.21 596.45V569.7" stroke="#FFB7D5" stroke-width="4" stroke-linecap="round" stroke-linejoin="round"/>
<path d="M663.55 630.41H628.87V675H663.55V630.41Z" fill="#F5EBDD"/>
<path d="M624.91 650.22H667.52" stroke="#FFB7D5" stroke-width="4" stroke-linecap="round" stroke-linejoin="round"/>
<path d="M646.21 676.98V650.22" stroke="#FFB7D5" stroke-width="4" stroke-linecap="round" stroke-linejoin="round"/>
<path d="M557.28 298.2C571.507 298.2 583.04 286.667 583.04 272.44C583.04 258.213 571.507 246.68 557.28 246.68C543.053 246.68 531.52 258.213 531.52 272.44C531.52 286.667 543.053 298.2 557.28 298.2Z" fill="#F5EBDD"/>
<path d="M848 665.81H411.03V695.54H848V665.81Z" fill="#F5EBDD"/>
<path d="M636.42 147.59H622.61C514 147.59 425.9 235.67 425.9 344.31V695.54H833.14V344.31C833.14 235.67 745.06 147.59 636.42 147.59ZM614.65 665.81H455.65V418.1H614.65V665.81ZM614.65 388.37H455.65V345.32C455.65 302.321 472.136 260.959 501.715 229.751C531.294 198.543 571.713 179.863 614.65 177.56V388.37ZM803.41 665.81H644.41V418.1H803.41V665.81ZM803.41 388.37H644.41V177.56C687.347 179.863 727.766 198.543 757.345 229.751C786.924 260.959 803.41 302.321 803.41 345.32V388.37Z" fill="#F5EBDD"/>
<path d="M734.15 639.7C734.15 639.7 665.49 474.9 662.49 431.94C652.41 287.35 809.27 369.72 833.8 383.94C851.66 394.3 921.7 433.49 935.68 447.46C944.68 456.46 938.42 463.13 938.42 463.13C938.42 463.13 948.93 476.93 934.15 478.57C944.66 492.37 927.9 494.24 927.9 494.24C927.9 494.24 932.39 507.71 914.98 503.66C896.22 499.29 753.98 437.72 753.98 437.72C753.98 437.72 785.76 538.05 795.68 569.79L734.15 639.7Z" fill="#A15842"/>
<path d="M887.48 492.17C890.86 491.5 893.14 489.55 892.48 485.36C890.33 471.6 867.34 458.6 867.34 458.6C867.34 458.6 876.56 436.41 858.46 419.27" stroke="#30242A" stroke-width="4" stroke-miterlimit="10" stroke-linecap="round"/>
<path d="M927.67 493.53C919.42 488.7 889.18 471.01 882.01 467.33" stroke="#30242A" stroke-width="4" stroke-miterlimit="10" stroke-linecap="round"/>
<path d="M934.43 478.12C924.11 471.94 898.97 456.29 888.59 450.85" stroke="#30242A" stroke-width="4" stroke-miterlimit="10" stroke-linecap="round"/>
<path d="M938.18 461.22C925.18 452.6 900.66 436.63 890.96 431.73" stroke="#30242A" stroke-width="4" stroke-miterlimit="10" stroke-linecap="round"/>
<path d="M880.85 465.43C884.31 459.17 890.23 446.73 890.55 426.79" stroke="#30242A" stroke-width="4" stroke-miterlimit="10" stroke-linecap="round"/>
<path d="M753.6 440.06L730.18 429.42" stroke="#30242A" stroke-width="4" stroke-linecap="round" stroke-linejoin="round"/>
<path d="M396.77 907.68V926.95H563.38V907.68H396.77Z" fill="#A15842"/>
<path d="M590.82 1007.65L549.55 760H574.83C577.535 760 580.13 758.925 582.042 757.013C583.955 755.1 585.03 752.505 585.03 749.8C585.03 747.095 583.955 744.5 582.042 742.588C580.13 740.675 577.535 739.6 574.83 739.6H385.56C382.855 739.6 380.26 740.675 378.347 742.588C376.435 744.5 375.36 747.095 375.36 749.8C375.36 752.505 376.435 755.1 378.347 757.013C380.26 758.925 382.855 760 385.56 760H410.56L369.29 1007.63C369.08 1008.86 369.141 1010.12 369.469 1011.32C369.797 1012.52 370.383 1013.64 371.186 1014.59C371.99 1015.54 372.992 1016.31 374.122 1016.83C375.253 1017.36 376.484 1017.63 377.73 1017.63C379.685 1017.63 381.58 1016.96 383.103 1015.73C384.625 1014.51 385.683 1012.8 386.1 1010.89L440.81 760H519.34L574 1010.88C574.414 1012.79 575.469 1014.5 576.99 1015.73C578.511 1016.95 580.406 1017.62 582.36 1017.62C583.605 1017.62 584.835 1017.35 585.965 1016.83C587.096 1016.31 588.098 1015.55 588.904 1014.6C589.709 1013.65 590.298 1012.54 590.629 1011.34C590.96 1010.14 591.025 1008.88 590.82 1007.65Z" fill="#FFBE21"/>
<path d="M574.83 760C577.535 760 580.13 758.925 582.042 757.013C583.955 755.1 585.03 752.505 585.03 749.8C585.03 747.095 583.955 744.5 582.042 742.588C580.13 740.675 577.535 739.6 574.83 739.6H385.56C382.855 739.6 380.26 740.675 378.348 742.588C376.435 744.5 375.36 747.095 375.36 749.8C375.36 752.505 376.435 755.1 378.348 757.013C380.26 758.925 382.855 760 385.56 760H410.56L410.51 760.31H440.7L440.77 760H519.3L519.37 760.31H549.6L549.55 760H574.83Z" fill="#A15842"/>
<path d="M495.94 999.76H260.86L216.53 863.34C213.24 853.22 218.78 845.02 228.89 845.02H427.34C437.46 845.02 448.34 853.22 451.61 863.34L495.94 999.76Z" fill="#FFB7D5"/>
<path d="M644 999.76H412.85C413.515 1001.81 413.684 1003.99 413.346 1006.12C413.007 1008.24 412.169 1010.26 410.901 1012C409.633 1013.75 407.971 1015.16 406.05 1016.14C404.129 1017.11 402.005 1017.62 399.85 1017.62H631C633.155 1017.62 635.281 1017.12 637.203 1016.14C639.125 1015.17 640.789 1013.75 642.057 1012.01C643.326 1010.26 644.163 1008.25 644.501 1006.12C644.838 1003.99 644.667 1001.81 644 999.76Z" fill="#FFB7D5"/>
<path d="M412.85 999.76H261.09L262.86 1005.22C264.03 1008.82 266.311 1011.96 269.375 1014.19C272.44 1016.42 276.131 1017.62 279.92 1017.62H399.92C402.069 1017.61 404.185 1017.1 406.097 1016.11C408.009 1015.13 409.662 1013.72 410.922 1011.97C412.182 1010.23 413.014 1008.22 413.349 1006.1C413.684 1003.98 413.513 1001.8 412.85 999.76Z" fill="#CA7358"/>
<path d="M479.92 999.76H278.91L236.96 870.81H437.97L479.92 999.76Z" fill="#F5EBDD"/>
<path d="M404.72 974.16H342.8C335.92 974.16 328.54 968.58 326.3 961.71L311.37 915.71C309.14 908.84 312.9 903.26 319.78 903.26H381.7C388.57 903.26 395.95 908.84 398.19 915.71L413.12 961.71C415.35 968.58 411.59 974.16 404.72 974.16Z" fill="#3EC1F3"/>
<path d="M262 997.78H494" stroke="#CA7358" stroke-width="4" stroke-miterlimit="10" stroke-linecap="round"/>
<path d="M397.82 913.51L373.4 939.59C368.67 944.59 359.66 944.59 351.65 939.59L311.33 914.17" stroke="#F5EBDD" stroke-width="4" stroke-miterlimit="10" stroke-linecap="round"/>
<path d="M374.36 938.83L412.86 963.1" stroke="#F5EBDD" stroke-width="4" stroke-miterlimit="10" stroke-linecap="round"/>
<path d="M326.92 963.69L349.94 939.1" stroke="#F5EBDD" stroke-width="4" stroke-miterlimit="10" stroke-linecap="round"/>
<path d="M400.19 921.16C392.49 921.16 384.19 914.86 381.65 907.16C380.47 903.52 380.78 900.16 382.53 897.77C384.14 895.57 386.85 894.35 390.17 894.35C397.87 894.35 406.17 900.65 408.7 908.4C409.89 912.04 409.58 915.4 407.82 917.78C406.22 919.94 403.51 921.16 400.19 921.16Z" fill="#4756DF"/>
<path d="M390.17 896.3C396.95 896.3 404.57 902.1 406.8 908.96C407.8 911.96 407.57 914.68 406.21 916.56C405.488 917.438 404.567 918.132 403.524 918.584C402.48 919.036 401.345 919.233 400.21 919.16C393.42 919.16 385.81 913.36 383.58 906.49C382.58 903.49 382.81 900.78 384.17 898.9C385.39 897.22 387.52 896.3 390.17 896.3ZM390.17 892.3C381.65 892.3 376.98 899.21 379.75 907.73C382.52 916.25 391.67 923.16 400.19 923.16C408.71 923.16 413.38 916.25 410.61 907.73C407.84 899.21 398.69 892.3 390.17 892.3Z" fill="#F5EBDD"/>
<path d="M1213.09 549.44H1212.84C1211.06 552.66 1199.33 572.35 1178.72 572.35C1158.11 572.35 1146.38 552.66 1144.59 549.44H1144.35L1112.27 694.25H1245.17L1213.09 549.44Z" fill="#3EC1F3"/>
<path d="M1127.47 626.47C1154.69 629.32 1196.96 653.63 1211.65 693.83" stroke="#F5EBDD" stroke-width="4" stroke-miterlimit="10" stroke-linecap="round"/>
<path d="M1145.11 695C1148.16 662.25 1174.11 608.12 1220.81 591.19" stroke="#F5EBDD" stroke-width="4" stroke-miterlimit="10" stroke-linecap="round"/>
<path d="M1178.23 561.68C1166.76 573.77 1152.3 585.03 1135.94 592.59" stroke="#F5EBDD" stroke-width="4" stroke-miterlimit="10" stroke-linecap="round"/>
<path d="M1178.72 572.35C1199.33 572.35 1211.06 552.66 1212.84 549.44H1144.59C1146.38 552.66 1158.1 572.35 1178.72 572.35Z" fill="#30242A"/>
<path d="M991.46 1017.62C990.07 1017.62 988.699 1017.29 987.461 1016.66C986.223 1016.03 985.152 1015.11 984.337 1013.98C983.523 1012.86 982.986 1011.55 982.773 1010.18C982.56 1008.81 982.675 1007.4 983.11 1006.08L1010.69 922.16C1011.27 920.409 1012.4 918.887 1013.89 917.81C1015.39 916.733 1017.19 916.155 1019.04 916.16H1038.34C1039.87 916.159 1041.38 916.558 1042.71 917.32C1044.04 918.081 1045.15 919.177 1045.93 920.499C1046.7 921.822 1047.12 923.324 1047.14 924.857C1047.15 926.391 1046.77 927.902 1046.02 929.24L999.14 1013.16C998.37 1014.52 997.252 1015.64 995.903 1016.43C994.554 1017.21 993.02 1017.62 991.46 1017.62Z" fill="#A15842"/>
<path d="M1403 692.61H950.44V951.69H1403V692.61Z" fill="#FFB7D5"/>
<path d="M1368.94 726V918.28H984.5V726H1368.94ZM1372.94 722H980.5V922.28H1372.94V722Z" fill="#CA7358"/>
<path d="M1176.3 721.64V922.66" stroke="#CA7358" stroke-width="4" stroke-miterlimit="10"/>
<path d="M1221.78 833.8C1228.21 833.8 1233.43 828.584 1233.43 822.15C1233.43 815.716 1228.21 810.5 1221.78 810.5C1215.35 810.5 1210.13 815.716 1210.13 822.15C1210.13 828.584 1215.35 833.8 1221.78 833.8Z" fill="#30242A"/>
<path d="M1131.66 833.8C1138.09 833.8 1143.31 828.584 1143.31 822.15C1143.31 815.716 1138.09 810.5 1131.66 810.5C1125.23 810.5 1120.01 815.716 1120.01 822.15C1120.01 828.584 1125.23 833.8 1131.66 833.8Z" fill="#30242A"/>
<path d="M509.52 615.2C517.283 615.2 524.728 618.284 530.217 623.773C535.706 629.262 538.79 636.707 538.79 644.47V739.88H480.25V644.47C480.25 636.707 483.334 629.262 488.823 623.773C494.312 618.284 501.757 615.2 509.52 615.2Z" fill="#4756DF"/>
<path d="M538.8 652.59H480.25V707.14H538.8V652.59Z" fill="#3EC1F3"/>
<path d="M522.53 600.02H496.51V618.45H522.53V600.02Z" fill="#30242A"/>
<path d="M867.56 445.28C887.553 445.28 903.76 429.073 903.76 409.08C903.76 389.087 887.553 372.88 867.56 372.88C847.567 372.88 831.36 389.087 831.36 409.08C831.36 429.073 847.567 445.28 867.56 445.28Z" fill="#30242A"/>
<path d="M839.45 431.46C842.34 432.77 817.83 375.46 805.55 384.54C794 393.05 824.83 424.81 839.45 431.46Z" fill="#FFBE21"/>
<path d="M836.34 431.35C838.74 434.35 896.59 415.35 888.86 403.57C881.44 392.27 833.94 428.37 836.34 431.35Z" fill="#FFBE21"/>
<path d="M907.24 389.74C920.114 389.74 930.55 379.304 930.55 366.43C930.55 353.556 920.114 343.12 907.24 343.12C894.366 343.12 883.93 353.556 883.93 366.43C883.93 379.304 894.366 389.74 907.24 389.74Z" fill="#30242A"/>
<path d="M748.04 779.56H867.07L873.35 749.8H729.93L748.04 779.56Z" fill="#CA7358"/>
<path d="M747 681.36C747 681.36 771.31 649.62 816.93 646.64L847.22 581.57C839.13 580.28 833.3 579.46 833.3 579.46C834.5 576.56 838.58 566.96 843.51 555.12C834.59 549.19 820.02 537.53 816.65 522.82C827.35 521.21 848.65 511.11 840.24 493.44C829.94 471.77 802.68 488.44 802.68 488.44C794.405 479.053 789.119 467.409 787.5 455C784.19 455.34 774.71 454.33 767.98 450.69L767.53 450.43C763.929 457.501 760.698 464.754 757.85 472.16C757.1 474.06 756.38 475.9 755.62 477.65C755.62 477.65 746.21 476.05 744.28 479.94C741.89 484.74 749.05 490.94 749.05 490.94C743.33 501.7 738.26 510.51 740.1 521.67C741.72 531.52 751.01 543.49 772.9 545.49L761.9 580.2L720.9 651.39C728.94 656.1 739.74 665.07 747 681.36Z" fill="#CA7358"/>
<path d="M1036.68 542C1023.77 525.89 977.68 460.11 962.29 447.77C952.37 439.83 946.42 446.77 946.42 446.77C946.42 446.77 931.54 437.84 931.54 452.72C916.66 443.79 916.66 460.65 916.66 460.65C916.66 460.65 902.77 457.65 908.73 474.54C915.14 492.7 987.09 623.78 987.09 623.78C987.09 623.78 912.69 596.01 883.93 588.61C878.65 587.25 872.18 585.91 865.65 584.69C861.44 594.55 854.86 610.69 844.25 637.69C829.85 674.24 836.85 710.78 878.52 725.28L885.91 690.28C885.91 690.28 962.91 719.22 1005.91 718.05C1151.74 714.09 1054.54 564.31 1036.68 542Z" fill="#CA7358"/>
<path d="M787.5 455C789.113 467.445 794.414 479.123 802.72 488.53C802.72 488.53 829.98 471.81 840.28 493.53C848.69 511.2 827.39 521.3 816.69 522.91C820.06 537.62 834.63 549.28 843.55 555.21C850.87 537.62 860.05 515.07 864.37 502.21C870.76 483.15 874.06 453.61 845.37 432.27C818.52 412.34 787.75 425.56 780.81 432.5C776.69 436.62 772.81 440.5 767.57 450.5L768.02 450.76C774.71 454.29 784.19 455.3 787.5 455Z" fill="#30242A"/>
<path d="M844.25 637.72C854.86 610.78 861.44 594.6 865.65 584.72C859.21 583.51 852.72 582.42 847.26 581.55L817 646.64C771.38 649.64 747.07 681.36 747.07 681.36C739.77 665.07 728.97 656.1 720.98 651.36L711.84 667.23C707.173 675.588 704.806 685.034 704.982 694.605C705.158 704.176 707.869 713.529 712.84 721.71L729.92 749.78H873.35L878.52 725.29C836.85 710.81 829.85 674.27 844.25 637.72Z" fill="#FFBE21"/>
<path d="M773.52 547.54C779.744 547.506 785.933 546.591 791.9 544.82" stroke="#30242A" stroke-width="4" stroke-miterlimit="10" stroke-linecap="round"/>
<path d="M919.53 494.85C920.26 492.31 922.06 490.66 925.59 490.91C939.48 491.91 954.35 513.73 954.35 513.73C954.35 513.73 975.7 502.73 994.29 519.28" stroke="#30242A" stroke-width="4" stroke-miterlimit="10" stroke-linecap="round"/>
<path d="M918.68 460.11C926.44 472.34 940.86 495.11 944.43 500.83" stroke="#30242A" stroke-width="4" stroke-miterlimit="10" stroke-linecap="round"/>
<path d="M933 451.62C941 463.4 955 483.5 960.31 491.91" stroke="#30242A" stroke-width="4" stroke-miterlimit="10" stroke-linecap="round"/>
<path d="M948.66 447C958.66 459.76 973.98 479.56 979.15 488" stroke="#30242A" stroke-width="4" stroke-miterlimit="10" stroke-linecap="round"/>
<path d="M946.42 500.83C952.42 496.83 964.27 489.92 984.11 487.94" stroke="#30242A" stroke-width="4" stroke-miterlimit="10" stroke-linecap="round"/>
<path d="M833.07 577.34L815.49 575.23" stroke="#30242A" stroke-width="4" stroke-miterlimit="10" stroke-linecap="round"/>
<path d="M770.85 769.64L769.86 767.66" stroke="#30242A" stroke-width="4" stroke-miterlimit="10" stroke-linecap="round"/>
<path d="M884.93 692.2L875 688.3" stroke="#30242A" stroke-width="4" stroke-miterlimit="10" stroke-linecap="round"/>
<path d="M1009.9 630.77L987.35 621.91" stroke="#30242A" stroke-width="4" stroke-miterlimit="10" stroke-linecap="round"/>
<path d="M873.35 749.8H729.93" stroke="#30242A" stroke-width="4" stroke-linecap="round" stroke-linejoin="round"/>
<path d="M815.49 646.64L801 679C798.825 683.846 795.296 687.96 790.838 690.846C786.379 693.733 781.181 695.269 775.87 695.27H704.87" stroke="#30242A" stroke-width="4" stroke-linecap="round" stroke-linejoin="round"/>
<path d="M754.47 503C756.18 504.47 763.12 506.47 766.83 501.46" stroke="#30242A" stroke-width="4" stroke-miterlimit="10" stroke-linecap="round"/>
<path d="M824.93 499.89L812.37 504.76" stroke="#A15842" stroke-width="4" stroke-miterlimit="10" stroke-linecap="round"/>
<path d="M778.08 480.24C777.124 480.479 776.128 480.519 775.156 480.358C774.183 480.197 773.254 479.839 772.426 479.304C771.597 478.77 770.887 478.072 770.339 477.252C769.791 476.433 769.417 475.51 769.24 474.54" stroke="#30242A" stroke-width="4" stroke-linecap="round" stroke-linejoin="round"/>
<path d="M811.82 517.6L807.28 536.15C807.037 537.11 807.047 538.116 807.307 539.071C807.567 540.026 808.069 540.898 808.765 541.602C809.461 542.306 810.327 542.818 811.279 543.09C812.232 543.361 813.238 543.382 814.2 543.15L831.15 539.15C832.107 538.918 832.988 538.444 833.709 537.773C834.43 537.103 834.967 536.258 835.268 535.321C835.569 534.383 835.624 533.384 835.428 532.419C835.233 531.455 834.793 530.556 834.15 529.81L821.74 515.3C821.056 514.505 820.167 513.913 819.17 513.587C818.173 513.262 817.106 513.214 816.085 513.451C815.063 513.688 814.126 514.2 813.374 514.931C812.622 515.662 812.085 516.585 811.82 517.6Z" fill="#F4E6D8"/>
<path d="M850 948.62C840.08 936.71 805.57 893.62 805.57 893.62" stroke="#30242A" stroke-width="4" stroke-linecap="round" stroke-linejoin="round"/>
<path d="M1118 852C1114.36 842.16 1107.68 825.67 1099.44 805.87L1011 831.68L1000.86 834.88C1005.42 864.37 1008.92 878.75 1008.92 878.75C1008.92 878.75 913.7 791.46 867.08 779.56H748L707.33 1017.62H1062.43C1163.65 1017.62 1134.88 897.6 1118 852Z" fill="#4856DF"/>
<path d="M1021.71 624.49C1020.56 621.748 1018.49 619.489 1015.86 618.098C1013.23 616.707 1010.21 616.27 1007.29 616.86C989.66 620.8 988.29 654.18 984.11 673.42C977.17 705.17 962.29 717.07 961.3 737.9C960.3 757.9 992.05 765.67 992.05 765.67C993.13 776.143 994.227 785.867 995.34 794.84L1083.72 768.42C1059.48 711.28 1030.77 645.27 1021.71 624.49Z" fill="#A15842"/>
<path d="M1000.81 834.65V834.88L1010.95 831.68L1000.81 834.65Z" fill="#A15842"/>
<path d="M1099.46 805.84C1099.2 805.23 1098.95 804.61 1098.69 803.99L1011 831.68L1099.46 805.84Z" fill="#3EC1F3"/>
<path d="M1098.69 804C1094.08 792.94 1089 780.89 1083.69 768.43L995.31 794.85C997.2 810.29 999.07 823.54 1000.78 834.66L1010.96 831.66L1098.69 804Z" fill="#3EC1F3"/>
<path d="M830.74 779.25C862.44 812.5 1026.36 981.05 1077.35 964.05C1114.58 951.64 1059.76 829.37 1054.54 813.28" stroke="#3EC1F3" stroke-width="4" stroke-linecap="round" stroke-linejoin="round"/>
<path d="M1052 914.6C1040.51 904.3 1020 885.93 1009.1 876.23" stroke="#30242A" stroke-width="4" stroke-linecap="round" stroke-linejoin="round"/>
<path d="M988.08 742.86L990.02 763.59" stroke="#30242A" stroke-width="4" stroke-linecap="round" stroke-linejoin="round"/>
<path d="M1013 618.62L1016.76 629.16" stroke="#30242A" stroke-width="4" stroke-linecap="round" stroke-linejoin="round"/>
<path d="M1004 619.62L1010.08 634.57" stroke="#30242A" stroke-width="4" stroke-linecap="round" stroke-linejoin="round"/>
<path d="M773.53 911.84L772.97 911.67L793.66 779.36H748C748 779.36 565.53 849 523.87 915.45C484.49 978.26 556.6 1017.62 577.43 1017.62H759.1L773.53 911.84Z" fill="#4856DF"/>
<path d="M965.26 1017.62C989.07 1017.62 981.14 990.83 964.26 981.91C947.38 972.99 927.56 964.05 906.73 936.28C885.9 908.51 861.1 915.45 845.23 935.28C845.23 935.28 833.13 930.93 815.35 925.03L801.43 1017.61L965.26 1017.62Z" fill="#CA7358"/>
<path d="M775.27 912.36L773.53 911.84L759.1 1017.62H801.44L815.36 925C803.8 921.21 789.85 916.72 775.27 912.36Z" fill="#3EC1F3"/>
<path d="M954.35 1006.71L969 1015.62" stroke="#30242A" stroke-width="4" stroke-linecap="round" stroke-linejoin="round"/>
<path d="M675.63 888.67C717.29 896.6 735.31 901.67 773 913.67" stroke="#30242A" stroke-width="4" stroke-linecap="round" stroke-linejoin="round"/>
<path d="M942.45 1011.67L951 1016.62" stroke="#30242A" stroke-width="4" stroke-linecap="round" stroke-linejoin="round"/>
<path d="M847.23 934.05L861.11 939.26" stroke="#30242A" stroke-width="4" stroke-linecap="round" stroke-linejoin="round"/>
<path d="M1181.87 560.26C1183.99 547.74 1193.63 498.08 1217.22 471.21" stroke="#30242A" stroke-width="4" stroke-miterlimit="10" stroke-linecap="round"/>
<path d="M1231.73 514.525C1252.33 505.621 1267.4 494.646 1265.4 490.013C1263.4 485.379 1245.08 488.842 1224.48 497.746C1203.88 506.651 1188.81 517.625 1190.81 522.259C1192.82 526.892 1211.14 523.43 1231.73 514.525Z" fill="#30242A"/>
<path d="M1233.79 384.909C1241.23 374.975 1244.46 364.817 1241 362.22C1237.53 359.622 1228.69 365.57 1221.24 375.503C1213.79 385.437 1210.56 395.595 1214.03 398.192C1217.49 400.79 1226.34 394.843 1233.79 384.909Z" fill="#30242A"/>
<path d="M1274 451.88C1272.55 447.16 1263.15 445.64 1251.25 447.63C1259.96 435.86 1263.56 424.37 1259.25 420.74C1254.94 417.11 1244.25 422.59 1234.09 433.14C1234.09 421.08 1230.98 412.06 1226.09 411.43C1219.85 410.62 1213.01 423.77 1210.81 440.79C1210.16 445.651 1209.98 450.564 1210.27 455.46C1213.15 454.558 1216.21 454.39 1219.17 454.969C1222.13 455.549 1224.9 456.859 1227.22 458.78C1229.55 460.701 1231.36 463.172 1232.49 465.97C1233.62 468.767 1234.03 471.802 1233.69 474.8C1238.41 474.255 1243.07 473.274 1247.61 471.87C1264 466.85 1275.82 457.9 1274 451.88Z" fill="#FFBE21"/>
<path d="M1227.35 458.9C1225.02 456.932 1222.23 455.584 1219.24 454.983C1216.25 454.381 1213.16 454.546 1210.25 455.46C1210.78 463.57 1212.79 469.79 1215.86 472.11C1218.71 474.8 1225.37 475.73 1233.67 474.8C1234.01 471.834 1233.61 468.831 1232.5 466.058C1231.4 463.284 1229.63 460.825 1227.35 458.9Z" fill="#30242A"/>
<path d="M1175.33 558.67C1174.64 544.45 1170.51 474.67 1155.03 433.46" stroke="#30242A" stroke-width="4" stroke-miterlimit="10" stroke-linecap="round"/>
<path d="M1124.28 518.648C1150.88 513.579 1171.72 505.661 1170.82 500.962C1169.93 496.264 1147.64 496.565 1121.04 501.634C1094.44 506.704 1073.6 514.622 1074.5 519.32C1075.39 524.018 1097.68 523.718 1124.28 518.648Z" fill="#30242A"/>
<path d="M1166.38 374.12C1161.56 373.06 1155.63 380.52 1151.52 391.86C1145.52 378.5 1137.28 369.73 1132.02 371.69C1126.76 373.65 1126.25 385.69 1130.48 399.69C1119.95 393.81 1110.59 392.06 1107.64 396.02C1103.87 401.02 1111.97 413.47 1125.73 423.74C1129.65 426.689 1133.84 429.257 1138.25 431.41C1138.88 428.458 1140.23 425.71 1142.18 423.413C1144.14 421.117 1146.64 419.346 1149.46 418.26C1152.27 417.174 1155.31 416.809 1158.3 417.196C1161.3 417.584 1164.14 418.713 1166.59 420.48C1168.42 416.096 1169.85 411.554 1170.86 406.91C1174.53 390.15 1172.53 375.47 1166.38 374.12Z" fill="#FFBE21"/>
<path d="M1149.64 418.2C1146.78 419.263 1144.24 421.033 1142.24 423.345C1140.25 425.656 1138.88 428.434 1138.25 431.42C1145.58 434.93 1151.98 436.23 1155.51 434.7C1159.25 433.52 1163.33 428.17 1166.59 420.49C1164.17 418.741 1161.36 417.617 1158.4 417.218C1155.45 416.818 1152.44 417.156 1149.64 418.2Z" fill="#30242A"/>
<path d="M1103.49 448.44V448.5C1107.44 450.733 1110.41 454.368 1111.81 458.686C1113.22 463.004 1112.95 467.691 1111.06 471.82C1109.17 475.943 1105.8 479.208 1101.62 480.972C1097.44 482.736 1092.75 482.871 1088.48 481.35V481.42C1110.86 491.65 1132.37 492.55 1136.48 483.42C1140.59 474.29 1125.87 458.66 1103.49 448.44Z" fill="#FFBE21"/>
<path d="M1105.29 478.87C1103.36 477.789 1101.91 476.02 1101.22 473.915C1100.54 471.811 1100.67 469.526 1101.59 467.515C1102.52 465.504 1104.17 463.916 1106.21 463.066C1108.25 462.216 1110.54 462.168 1112.62 462.93C1112.39 459.958 1111.44 457.087 1109.84 454.57C1108.25 452.053 1106.05 449.969 1103.46 448.5L1088.46 481.35C1091.25 482.347 1094.25 482.643 1097.18 482.21C1100.12 481.778 1102.9 480.631 1105.29 478.87Z" fill="#F5EBDD"/>
<path d="M1101.59 467.54C1100.67 469.548 1100.54 471.828 1101.23 473.927C1101.92 476.025 1103.36 477.79 1105.29 478.87C1107.76 477.053 1109.73 474.637 1111.02 471.848C1112.3 469.06 1112.85 465.991 1112.62 462.93C1110.54 462.171 1108.25 462.224 1106.2 463.078C1104.16 463.932 1102.51 465.525 1101.59 467.54Z" fill="#30242A"/>
</svg>
